<svg width="19" height="12" viewBox="0 0 19 12" fill="none" xmlns="http://www.w3.org/2000/svg">
<path d="M15.75 11.31C16.4583 11.1462 17.0941 10.7565 17.5614 10.1996C18.0288 9.64275 18.3023 8.94897 18.3407 8.223C18.3791 7.49703 18.1802 6.77827 17.7742 6.17522C17.3682 5.57216 16.7771 5.11755 16.09 4.88C15.4891 4.68833 14.8491 4.65387 14.2312 4.77992C13.6132 4.90597 13.0378 5.18831 12.56 5.6C11.6997 6.42999 11.0995 7.37349 10.39 8.43C8.99997 10.5 6.09 12.16 3.56 10.84C2.94848 10.5276 2.43687 10.05 2.08331 9.4613C1.72976 8.87263 1.54845 8.19658 1.56 7.51C1.55998 6.99794 1.66133 6.49094 1.85819 6.01823C2.05505 5.54552 2.34353 5.11645 2.70701 4.75576C3.07048 4.39508 3.50176 4.10991 3.97597 3.91669C4.45018 3.72348 4.95795 3.62604 5.47 3.63H6C6.22227 2.92066 6.62382 2.28068 7.16581 1.77195C7.70779 1.26322 8.37188 0.902941 9.09386 0.725968C9.81583 0.548994 10.5712 0.56131 11.2871 0.761724C12.0029 0.962138 12.6549 1.34387 13.18 1.87C13.4256 2.11286 13.6405 2.38488 13.82 2.68" stroke="#66BFF9" stroke-width="1.2" stroke-linecap="round" stroke-linejoin="round"/>
</svg>
