<svg width="32" height="30" viewBox="0 0 32 30" fill="none" xmlns="http://www.w3.org/2000/svg">
<path d="M16 28.3334L15.5134 29.207C15.8159 29.3755 16.1841 29.3755 16.4866 29.207L16 28.3334ZM16 6.93703L15.0797 7.32815C15.2365 7.69733 15.5989 7.93703 16 7.93703C16.4011 7.93703 16.7635 7.69733 16.9203 7.32815L16 6.93703ZM0 9.95392C0 15.4323 4.06031 20.2862 7.8347 23.6497C9.75373 25.3598 11.6681 26.7454 13.1006 27.7028C13.8178 28.1821 14.4166 28.5557 14.838 28.8105C15.0488 28.938 15.2153 29.0358 15.3303 29.1024C15.3878 29.1357 15.4324 29.1612 15.4633 29.1787C15.4787 29.1875 15.4906 29.1942 15.499 29.1989C15.5032 29.2013 15.5065 29.2031 15.5089 29.2045C15.5101 29.2052 15.5111 29.2057 15.5119 29.2061C15.5122 29.2063 15.5126 29.2065 15.5128 29.2067C15.5132 29.2068 15.5134 29.207 16 28.3334C16.4866 27.4597 16.4867 27.4598 16.4868 27.4599C16.4868 27.4598 16.4868 27.4599 16.4868 27.4598C16.4866 27.4597 16.4862 27.4595 16.4856 27.4592C16.4844 27.4585 16.4822 27.4573 16.4792 27.4556C16.4732 27.4522 16.4637 27.4468 16.4507 27.4395C16.4247 27.4247 16.3851 27.4021 16.3328 27.3718C16.228 27.3111 16.0723 27.2197 15.8729 27.0991C15.474 26.8579 14.901 26.5005 14.2119 26.0399C12.8319 25.1176 10.9963 23.7881 9.16529 22.1565C5.43969 18.8365 2 14.5008 2 9.95392H0ZM16.9203 6.54591C15.0725 2.19762 10.8801 0.20983 7.10702 0.754902C5.21597 1.02809 3.42463 1.93938 2.10895 3.50734C0.790546 5.07856 0 7.24821 0 9.95392H2C2 7.64703 2.66779 5.9528 3.64105 4.79291C4.61704 3.62977 5.9507 2.94271 7.39298 2.73435C10.2865 2.31635 13.5942 3.83271 15.0797 7.32815L16.9203 6.54591ZM30 9.95392C30 14.5008 26.5603 18.8365 22.8347 22.1565C21.0037 23.7881 19.1681 25.1176 17.7881 26.0399C17.099 26.5005 16.526 26.8579 16.1271 27.0991C15.9277 27.2197 15.772 27.3111 15.6672 27.3718C15.6149 27.4021 15.5753 27.4247 15.5493 27.4395C15.5363 27.4468 15.5268 27.4522 15.5208 27.4556C15.5178 27.4573 15.5156 27.4585 15.5144 27.4592C15.5138 27.4595 15.5134 27.4597 15.5132 27.4598C15.5132 27.4599 15.5132 27.4598 15.5132 27.4599C15.5133 27.4598 15.5134 27.4597 16 28.3334C16.4866 29.207 16.4868 29.2068 16.4872 29.2067C16.4874 29.2065 16.4878 29.2063 16.4881 29.2061C16.4889 29.2057 16.4899 29.2052 16.4911 29.2045C16.4935 29.2031 16.4968 29.2013 16.501 29.1989C16.5094 29.1942 16.5213 29.1875 16.5367 29.1787C16.5676 29.1612 16.6122 29.1357 16.6697 29.1024C16.7847 29.0358 16.9512 28.938 17.162 28.8105C17.5834 28.5557 18.1822 28.1821 18.8994 27.7028C20.3319 26.7454 22.2463 25.3598 24.1653 23.6497C27.9397 20.2862 32 15.4323 32 9.95392H30ZM16.9203 7.32815C18.4058 3.83271 21.7135 2.31635 24.607 2.73435C26.0493 2.94271 27.383 3.62977 28.359 4.79291C29.3322 5.9528 30 7.64703 30 9.95392H32C32 7.24821 31.2095 5.07856 29.891 3.50734C28.5754 1.93938 26.784 1.02809 24.893 0.754902C21.1199 0.20983 16.9275 2.19762 15.0797 6.54591L16.9203 7.32815Z" fill="white"/>
</svg>
